<?xml version="1.0" encoding="utf-8"?>
<!-- Generator: Adobe Illustrator 16.0.0, SVG Export Plug-In . SVG Version: 6.00 Build 0)  -->
<!DOCTYPE svg PUBLIC "-//W3C//DTD SVG 1.1//EN" "http://www.w3.org/Graphics/SVG/1.1/DTD/svg11.dtd">
<svg version="1.1" id="Layer_1" xmlns="http://www.w3.org/2000/svg" xmlns:xlink="http://www.w3.org/1999/xlink" x="0px" y="0px"
	 width="728.484px" height="411.256px" viewBox="0 0 728.484 411.256" enable-background="new 0 0 728.484 411.256"
	 xml:space="preserve">
<g>
	<path fill-rule="evenodd" clip-rule="evenodd" fill="#B7BFC8" d="M307.589,239.108c-6.164,1.322-12.307,2.75-18.499,3.926
		c-3.213,0.611-3.733,2.459-3.687,5.354c0.221,13.631,0.249,27.271-2.445,40.727c-0.954,4.766-2.824,9.219-5.395,13.344
		c-1.248,2.002-1.489,3.393,1.439,3.707c0.651,0.068,1.273,0.379,1.919,0.531c8.441,2.006,8.442,2.004,12.648-5.447
		c5.656-10.016,22.458-14.85,32.555-9.287c3.871,2.131,5.471,5.691,5.417,9.986c-0.273,21.646,0.683,43.303-0.533,64.936
		c-0.169,3.014,1.739,2.299,3.191,2.318c5.832,0.082,11.67,0.174,17.498-0.012c3.644-0.117,4.98,1.205,5.007,4.93
		c0.048,6.631-0.896,13.322,0.777,19.895c2.678,10.523,12.714,15.344,22.05,10.037c7.572-4.305,14.629-4.645,22.01,0.053
		c4.635,2.949,9.496,2.934,14.146-0.006c7.177-4.535,14.269-4.805,21.509-0.174c4.988,3.191,10.064,3.037,15.053-0.08
		c7.234-4.521,14.191-4.121,21.508,0.25c10.131,6.055,22.302-1.535,22.809-14.02c0.209-5.156,0.241-10.342-0.028-15.494
		c-0.208-3.99,1.508-5.387,5.241-5.363c10.166,0.066,20.334-0.063,30.498,0.066c3.557,0.045,4.803-0.393,3.055-4.391
		c-5.258-12.027-6.683-24.889-7.772-37.857c-1.56-18.551-0.248-36.822,4.112-54.875c1.285-5.322,2.83-10.604,6.034-15.221
		c2.372-3.418,5.364-5.059,9.669-4.984c11.162,0.191,22.333,0.184,33.496,0.004c4.34-0.07,7.239,1.623,9.439,5.238
		c4.869,8,6.776,16.926,8.19,25.971c0.921,5.895,1.517,11.852,1.959,17.803c0.201,2.697,1.402,3.352,3.793,3.293
		c4.164-0.102,8.341-0.191,12.496,0.025c3.206,0.166,4.139-1.246,3.877-4.148c-0.135-1.488-0.042-2.998-0.019-4.498
		c0.08-5.09,2.677-8.258,7.037-8.611c4.697-0.381,9.458,2.793,9.574,7.416c0.313,12.488,0.315,24.996-0.077,37.48
		c-0.144,4.566-4.911,7.934-9.04,7.576c-4.255-0.369-7.409-4.15-7.498-8.992c-0.157-8.609-0.157-8.629-8.812-8.598
		c-3.325,0.012-7.173-0.875-9.842,0.488c-3.24,1.656-1.302,6.051-1.744,9.188c-1.788,12.66-3.428,25.313-9.758,37.768
		c17.961-0.75,35.01,0.699,52.097,0.422c1.045,0.002,2.089,0.002,3.133,0.002c7.292,0.008,14.584,0.016,21.877,0.023
		c1.37-0.01,2.74-0.018,4.11-0.025c7.292,0.002,14.583,0.002,21.875,0.004c1.05-0.014,2.099-0.029,3.148-0.045
		c9.158,0.072,18.316,0.107,27.474,0.25c1.646,0.025,4.144-0.838,4.314,1.961c0.176,2.879-2.204,2.854-4.245,2.859
		c-5.996,0.021-11.993,0.012-17.99,0.012c-63.8,0-127.6,0-191.399,0c-13.336,0-13.379,0-13.322,13.133
		c0.014,3.039-0.38,5.939-1.336,8.816c-4.26,12.813-17.669,17.994-29.351,11.328c-5.509-3.143-10.833-3.238-16.435,0.227
		c-6.486,4.014-13.311,3.85-19.834-0.154c-5.367-3.295-10.514-3.293-15.895-0.002c-6.707,4.102-13.592,4.055-20.272-0.09
		c-5.212-3.232-10.344-3.121-15.548-0.205c-14.442,8.094-30.724-1.309-31.098-18c-0.086-3.83-0.1-7.666,0.009-11.492
		c0.072-2.516-0.825-3.758-3.463-3.572c-1.492,0.105-2.997,0.012-4.497,0.012c-112.107,0-224.215,0.016-336.322-0.1
		c-2.666-0.002-7.719,2.084-7.469-2.771c0.2-3.898,4.939-1.734,7.57-1.887c6.641-0.387,13.314-0.223,19.976-0.279
		c1.372,0.008,2.743,0.016,4.115,0.021c4.686,0.143,9.387,0.607,14.009-0.641c1.276,0.012,2.552,0.021,3.828,0.031
		c9.071-0.148,18.145,1.193,27.213-0.047c0.943,0.006,1.885,0.012,2.828,0.018c7.297,1.512,14.665,0.611,22.004,0.643
		c1.372-0.008,2.743-0.018,4.114-0.027c9.961,0.018,19.923,0.033,29.885,0.051c0.215-0.107,0.429-0.219,0.643-0.328
		c-0.204-0.143-0.408-0.283-0.612-0.426c-21.373-13.949-32.26-33.875-32.77-59.203c-0.571-28.395,3.738-56.215,11.653-83.457
		c1.207-4.154-0.004-7.805-0.746-11.656c-2.047-10.62-1.053-21.147,1.016-31.637c-0.001,0-0.078-0.039-0.078-0.039
		c0.852-0.436,0.921-1.234,0.946-2.053c0.655-2.006,1.31-4.012,1.964-6.018c3.921-8.104,9.064-15.496,13.524-23.277
		c4.66-8.129,5.8-17.604,8.497-26.479c4.298-14.143,8.154-28.419,12.438-42.567c1.052-3.476,1.719-6.49-0.163-9.956
		c-2.145-3.95-1.068-7.965,1.895-11.055c2.79-2.909,6.824-3.631,10.111-1.503c8.045,5.208,16.869,3.861,25.566,3.969
		c2.665,0.033,5.343-0.16,7.993,0.044c4.02,0.31,6.919-0.308,9.41-4.37c3.438-5.608,10.208-4.985,13.94,0.652
		c6.166,9.316,14.24,14.294,25.945,13.823c14.802-0.596,29.646-0.161,44.472-0.135c5.524,0.01,6.745,1.44,6.175,6.903
		c-2.399,22.973-12.539,41.433-31.988,54.306c-2.791,1.848-3.52,3.79-2.349,6.63c2.537,6.157,2.189,13.461,8.083,18.324
		c3.451,2.846,5.414,2.973,8.405-0.695c15.748-19.315,31.751-38.421,47.679-57.59c10.194-12.269,20.417-24.515,30.603-36.791
		c0.628-0.757,1.634-1.862,1.45-2.523c-1.218-4.368,0.434-6.143,4.772-5.924c0.255,0.014,0.79-0.441,0.759-0.541
		c-2.26-7.162,5.538-5.103,7.813-8.315c2.462-3.475,6.68-2.612,9.834-0.202c3.244,2.479,3.912,6.501,1.256,9.221
		c-2.875,2.944-0.785,8.287-5.625,10.145c-0.493,0.189,0.559,4.603,1.013,7.033c4.249,22.721,12.526,44.042,22.391,64.837
		c6.016,12.682,10.503,25.85,11.131,40.059c0.024,1.336,0.05,2.672,0.073,4.008c-0.069,16.545-4,32.567-6.589,48.772
		c-1.335,8.355-2.418,16.752-2.521,25.236c-0.024,2.035-0.252,4.148,2.874,4.045c2.123-0.072,4.932-0.406,4.938,2.676
		c0.006,2.898,1.35,5.908-1.662,8.766c-3.068,2.912-5.619,6.664-5.26,11.514c0.141,1.9,0.615,3.479,2.641,3.508
		c1.679,0.025,2.564-1.242,2.584-3.043c0.021-1.99-0.109-4.564,2.834-4.146c2.759,0.391,2.072,3.053,2.004,4.924
		c-0.154,4.248-3.279,7.355-7.258,7.473c-3.94,0.115-7.674-2.91-7.506-7.113c0.239-6.031-2.734-10.012-6.678-13.914
		c-3.266-3.232-1.234-9.713,3.236-10.615c1.988-0.4,2.373-1.371,2.361-3.055c-0.151-19.576,5.071-38.432,7.723-57.633
		c0.52-3.773,0.76-7.586,1.129-11.379c0-1.354,0.001-2.705,0.002-4.057c0.93-13.467-2.586-26.063-7.971-38.155
		c-9.808-22.021-19.834-43.93-24.489-67.818c-0.323-1.655,0.659-4.389-2.198-4.975c-2.776-0.569-4.043,1.45-5.58,3.311
		c-18.52,22.413-37.122,44.758-55.684,67.136c-5.681,6.849-11.305,13.745-17.803,21.651c12.946-2.76,24.711-4.73,36.153-7.875
		c9.421-2.591,19.533-1.504,28.553-5.91c1.464-0.715,3.237-2.173,5.084-0.574c1.697,1.469,0.366,3.075,0.099,4.622
		c-0.558,3.23-0.204,5.162,4.051,4.308c3.037-0.609,6.988-3.192,9.218-0.27c2.303,3.02-1.331,6.133-2.73,8.955
		c-1.782,3.594-1.769,4.998,2.834,4.684c4.827-0.33,5.364,0.598,3.187,4.564c-13.414,24.416-31.56,43.905-57.545,55.27
		c-4.099,1.793-8.694,2.318-12.436,4.975C309.372,238.972,308.481,239.04,307.589,239.108z M310.601,296.019
		c-6.79-0.023-11.658,3.607-14.061,10.367c-1.729,4.861-0.74,9.877-0.955,14.82c-0.094,2.156,0.247,4.371-2.051,5.689
		c-2.089-0.105-2.847-1.387-2.87-3.287c-0.02-1.652-0.188-3.328,0.019-4.953c0.469-3.686-0.411-5.824-4.706-6.148
		c-3.733-0.279-7.403-1.453-11.092-2.271c-1.572-0.348-2.954-0.172-4.045,1.119c-4.225,4.996-9.719,8.322-15.242,11.615
		c-1.76,0.041-3.594-0.109-3.738-2.314c-0.136-2.086,1.894-2.502,3.303-3.281c14.642-8.094,22.928-20.531,24.367-37.109
		c1.163-13.4,1.511-26.816,0.316-40.32c-1.406-15.889-3.796-31.543-7.404-47.125c-0.479,0.238-0.844,0.309-1.028,0.529
		c-13.729,16.471-27.402,32.991-41.21,49.395c-1.975,2.346-0.381,2.986,1.081,4.158c2.07,1.658,5.561,2.145,5.156,5.957
		c-0.742,0.367-1.457,0.813-2.231,1.092c-5.443,1.957-5.909,3.557-2.25,7.877c5.26,6.209,5.26,6.209-2.693,7.793
		c-0.488,0.098-0.974,0.248-1.466,0.279c-4.604,0.291-5.242,2.053-2.331,5.611c1.871,2.287,1.964,4.049-1.829,4.652
		c-10.279,1.629-20.605,0.588-30.904,0.869c-11.761,0.322-23.04-2.158-34.174-5.857c-16.58-5.51-28.718-15.668-35.322-32.063
		c-1.535-3.813-3.175-7.582-5.076-12.105c-0.688,2.541-1.188,4.229-1.601,5.938c-4.106,16.953-6.794,34.1-8.152,51.518
		c-1.196,15.354-2.221,30.607,3.951,45.184c7.854,18.551,19.662,33.529,41.139,35.625c21.536,2.102,43.267,0.66,64.909,0.482
		c3.635-0.029,6.33-2.545,6.313-6.988c-0.08-20.33-0.076-40.662-0.005-60.994c0.015-4.176-2.194-6.477-5.938-6.465
		c-3.675,0.014-6.174,2.271-6.193,6.381c-0.015,3.332-0.004,6.666-0.014,9.998c-0.005,1.98,0.343,4.096-1.92,5.254
		c-2.322-0.213-3.032-1.652-2.993-3.781c0.084-4.66-0.46-9.42,0.324-13.953c0.673-3.891-1.093-3.629-3.366-2.975
		c-1.537,0.441-2.947,1.488-4.277,2.453c-7.294,5.287-6.743,13.094-6.806,20.813c-0.021,2.498,1.706,6.904-2.25,7.008
		c-4.152,0.111-2.415-4.342-2.436-6.809c-0.026-3.199-0.649-4.709-4.306-4.963c-6.103-0.422-12.132-1.852-18.234-2.367
		c-12.226-1.029-24.584-5.475-36.626,0.955c-3.212-2.299-1.336-3.807,0.855-5.17c6.678-4.156,14.057-3.559,21.312-2.705
		c10.993,1.293,21.932,3.041,32.906,4.504c1.939,0.26,4.465,0.537,4.668-2.295c0.351-4.881,3.427-8.129,6.204-11.615
		c6.47-5.893,14.442-6.402,22.471-5.725c8.308,0.699,11.493,4.725,11.521,13.246c0.049,14.809,0.095,29.615,0.142,44.424
		c-0.108,5.992,0.427,12.092-0.546,17.939c-0.676,4.059,0.707,4.096,3.646,4.082c13.993-0.057,27.986-0.025,41.979-0.025
		c14.326,0,28.653,0.039,42.979-0.018c6.001-0.023,8.772-2.203,8.791-7.117c0.077-20.324,0.024-40.646,0.035-60.971
		c0.002-4.373-2.613-6.639-6.505-6.6c-3.644,0.037-5.5,2.789-5.582,6.438c-0.082,3.662,0.152,7.342-0.099,10.99
		c-0.189,2.758-1.124,5.18-4.747,3.176c0.098-6.623-0.933-13.297,0.905-19.842c0.119-0.057,0.26-0.092,0.351-0.178
		c0.055-0.053,0.033-0.184,0.046-0.281C310.878,295.724,310.74,295.872,310.601,296.019z M340.64,218.056
		c9.335-6.555,16.942-14.893,24.061-23.676c5.647-6.963,6.077-16.762,1.472-24.225c-4.723-7.654-13.88-11.421-22.775-9.656
		c-17.372,3.445-34.522,7.982-52.061,10.6c-1.874,0.279-2.949,1.354-3.741,2.908c-2.902,3.389-5.639,6.941-8.76,10.113
		c-2.311,2.35-2.554,4.74-1.837,7.725c3.175,13.221,5.764,26.538,6.732,40.147c0.521,7.322,0.751,7.301,7.889,5.598
		c0.965-0.229,1.95-0.381,2.925-0.568C311.183,233.794,326.933,228.407,340.64,218.056z M264.813,166.903
		c-1.327-7.998-4.551-15.479-6.364-23.336c-0.762-3.304-2.469-3.16-4.893-2.021c-8.529,4.009-17.71,4.832-26.93,5.443
		c-1.185-0.754-2.244-1.649-1.619-3.225c0.787-1.983,2.618-1.681,4.271-1.749c26.91-1.112,50.429-18.236,59.292-43.159
		c1.91-5.369,1.68-5.953-3.835-5.691c-8.485,0.401-14.089-3.36-16.881-11.162c-0.863-2.413-2.121-3.01-4.373-2.986
		c-6.666,0.068-13.346-0.244-19.995,0.099c-6.559,0.338-12.159-1.472-16.899-5.914c-3.38-3.167-7.372-4.225-11.892-4.189
		c-10.832,0.085-21.666,0.053-32.499,0.018c-6.216-0.021-12.547,1.031-18.035-3.563c-1.691-1.416-4.617-2.396-6.916-0.197
		c-2.431,2.326-1.566,5.105-0.15,7.331c1.632,2.564,1.47,4.813,0.669,7.534c-4.974,16.895-9.925,33.799-14.641,50.768
		c-3.257,11.72-6.744,23.169-13.958,33.336c-8.302,11.703-11.95,25.041-11.655,39.502c0.298,14.551,5.84,27.518,11.582,40.446
		c5.027,11.318,13.444,19.266,24.845,24.002c17.198,7.143,35.098,9.84,53.613,7.801c5.324-0.586,9.726-3.42,12.942-7.74
		c7.68-10.314,5.361-22.881-5.847-31.512c-6.982-5.377-14.115-10.557-21.158-15.855c-5.979-4.498-11.965-8.992-17.858-13.604
		c-1.295-1.012-3.741-2.127-2.074-4.274c1.654-2.129,3.559-0.738,5.147,0.646c0.251,0.219,0.508,0.432,0.774,0.633
		c11,8.336,22,16.672,33.002,25.004c5.962,4.516,5.863,4.43,10.722-1.521c13.25-16.223,26.393-32.54,40.037-48.426
		C266.935,175.034,267.491,171.461,264.813,166.903z M553.792,256.911c9.072,18.607,10.106,37.756,9.91,57.119
		c-0.082,8.141,0.115,16.291-1.146,24.371c-1.535,9.834-2.889,19.752-7.758,28.648c-1.721,3.143,0.137,2.898,2.126,2.9
		c7.657,0.006,15.313-0.008,22.971,0.004c2.72,0.002,4.661-1.129,6.189-3.453c3.551-5.396,5.247-11.488,6.479-17.65
		c4.442-22.209,4.422-44.561,0.91-66.859c-1.206-7.658-3.008-15.324-7.229-22.105c-1.127-1.809-2.384-3.027-4.733-3.006
		C572.537,256.958,563.563,256.911,553.792,256.911z M559.582,313.155c0.761-6.201-0.709-12.277-1.108-18.389
		c-0.701-10.758-2.436-21.438-6.94-31.393c-1.185-2.617-2.204-6.113-5.721-6.248c-3.899-0.148-4.595,3.725-6.192,6.316
		c-0.169,0.273-0.182,0.641-0.309,0.945c-5.871,14.039-6.613,28.992-7.585,43.857c-0.717,10.961,0.706,21.887,2.048,32.736
		c0.974,7.889,2.979,15.65,6.34,22.941c1.113,2.416,2.434,5.113,5.546,5.07c3.083-0.041,4.265-2.791,5.51-5.15
		c0.229-0.438,0.318-0.945,0.513-1.402C558.381,346.655,558.706,329.854,559.582,313.155z M366.502,69.648
		c-0.797-0.95-1.536-2.429-2.725-3.078c-1.184-0.646-1.973,0.879-2.682,1.733c-16.024,19.31-32.029,38.634-48.035,57.958
		c-15.792,19.065-31.603,38.116-47.367,57.204c-13.861,16.783-27.643,33.633-41.536,50.391c-1.538,1.855-2.095,3.361-0.128,5.098
		c2.56,2.26,3.589-0.41,4.678-1.715c19.689-23.59,39.327-47.223,58.937-70.881c25.545-30.817,51.054-61.666,76.586-92.494
		C365.192,72.704,366.112,71.544,366.502,69.648z M632.584,313.237c0-5.645,0.06-11.289-0.031-16.93
		c-0.033-2.07-0.604-4.014-3.176-4.33c-2.778-0.344-4.207,1.449-4.387,3.699c-0.33,4.141-1.388,8.293,2.514,11.98
		c3.128,2.955,3.733,7.557,0.183,10.656c-3.902,3.406-3.049,7.42-2.84,11.418c0.118,2.262,0.839,5.039,3.875,4.863
		c3.068-0.18,3.871-2.688,3.874-5.424C632.602,323.86,632.598,318.548,632.584,313.237z M611.951,317.015
		c2.646,0,5.292,0.008,7.938-0.002c2.758-0.012,5.276-0.949,5.262-3.977c-0.014-3.033-2.552-3.924-5.304-3.926
		c-4.961-0.002-9.928,0.131-14.882-0.055c-3.031-0.113-4.445,0.559-4.46,4.037c-0.017,3.559,1.544,4.174,4.502,3.961
		C607.31,316.886,609.635,317.019,611.951,317.015z M377.399,51.023c-1.844,0.117-3.314,1.272-3.654,3.187
		c-0.336,1.887,1.143,3.394,2.803,3.394c2.051,0.001,2.955-1.842,3.114-3.817C379.778,52.335,379.44,51.12,377.399,51.023z
		 M213.519,64.965c1.192-0.458,3.422,0.907,3.454-1.383c0.021-1.456-1.582-2.479-3.26-2.512c-1.892-0.038-3.591,0.988-3.522,2.746
		C210.262,65.614,212.325,64.644,213.519,64.965z M397.212,267.099c3.03,0.91,6.079,1.637,9.981-0.5
		C403.097,265.833,400.126,265.565,397.212,267.099z"/>
	<path fill-rule="evenodd" clip-rule="evenodd" fill="#EEF0F3" d="M412.67,183.047c-0.023-1.336-0.049-2.672-0.073-4.008
		c6.446-3.85,11.634-9.275,17.423-13.947c5.412-4.367,10.745-8.834,16.049-13.333c2.109-1.789,3.662-1.895,5.98,0.088
		c14.479,12.382,29.156,24.533,43.689,36.851c2.656,2.252,4.915,2.27,8.1,0.818c29.773-13.566,59.645-26.92,89.464-40.388
		c2.101-0.949,3.927-1.27,6.146-0.214c16.947,8.062,33.945,16.02,50.925,24.012c0.753,0.355,1.502,0.723,2.229,1.127
		c0.875,0.486,1.977,1.064,1.428,2.223c-0.505,1.064-1.788,0.885-2.667,0.512c-3.808-1.617-7.584-3.311-11.337-5.053
		c-13.716-6.369-27.459-12.682-41.077-19.253c-1.903-0.918-3.16-1.026-4.986-0.201c-11.953,5.406-23.967,10.675-35.938,16.042
		c-16.519,7.404-33.002,14.893-49.533,22.27c-6.406,2.859-6.593,2.938-1.258,7.484c8.82,7.52,17.85,14.795,26.793,22.17
		c0.385,0.316,0.857,0.551,1.172,0.924c0.811,0.959,2.701,1.828,1.775,3.146c-1.016,1.449-2.68,0.65-3.922-0.393
		c-10.409-8.73-20.809-17.471-31.232-26.184c-13.598-11.367-27.215-22.711-40.826-34.061c-2.291-1.91-5.115-3.43-6.793-5.774
		c-3.896-5.444-7.266-3.128-10.921,0.002c-9.188,7.868-18.411,15.698-27.597,23.569C414.78,182.25,413.939,183.028,412.67,183.047z"
		/>
	<path fill-rule="evenodd" clip-rule="evenodd" fill="#EEF0F3" d="M49.507,369.196c-1.276-0.01-2.552-0.02-3.829-0.033
		c4.666-11.762-1.977-21.734-4.688-32.393c-1.318,2.227-2.024,4.396-2.589,6.604c-2.254,8.807-5.583,17.342-6.731,26.432
		c-1.372-0.006-2.743-0.014-4.115-0.021c3.665-13.078,7.356-26.148,10.961-39.242c0.407-1.479,0.438-3.188,2.363-3.281
		c2.168-0.107,1.989,2.045,2.349,3.275c2.034,6.961,3.868,13.979,5.989,21.777c2.839-4.09,3.162-8.246,4.298-12.031
		c2.428-8.084,4.447-16.291,6.717-24.426c0.373-1.334,0.327-3.361,2.314-3.389c2.073-0.029,1.799,1.936,2.192,3.324
		c3.33,11.777,6.701,23.543,10.461,36.721c2.685-11.221,5.045-21.098,7.413-30.975c1.157-4.828,2.254-9.674,3.541-14.467
		c0.357-1.33,0.324-3.502,2.182-3.502c1.885-0.002,1.753,2.238,2.068,3.504c3.162,12.688,6.157,25.418,9.231,38.129
		c1.984,8.201,4.02,16.391,6.033,24.582c-1.371,0.008-2.742,0.018-4.113,0.027c0.033-1.652-0.025-3.254-0.438-4.914
		c-2.592-10.412-5.007-20.871-7.567-31.293c-1.61-6.555-3.371-13.074-5.412-20.953c-3.074,12.709-5.484,24.02-8.612,35.127
		c-2.047,7.271-2.377,14.26,0.024,21.389c-0.943-0.006-1.885-0.012-2.829-0.018c-2.701-9.355-5.408-18.709-8.098-28.066
		c-1.878-6.535-3.735-13.078-5.601-19.617c-3.477,9.07-6.142,18.037-8.422,27.1C52.872,355.435,49.841,361.987,49.507,369.196z"/>
	<path fill-rule="evenodd" clip-rule="evenodd" fill="#EEF0F3" d="M347.448,42.038c1.667-0.001,3.369-0.224,4.994,0.038
		c6.468,1.04,10.58-0.74,13.211-7.507c2.203-5.665,7.723-8.716,14.1-8.438c3.551,0.155,5.955-0.899,8.004-3.687
		c2.568-3.492,6.099-5.64,10.455-6.112c2.49-0.271,3.617-1.539,4.49-3.861c2.99-7.958,10.867-12.948,19.082-12.434
		c7.646,0.478,14.986,6.709,16.502,14.948c0.564,3.065,1.805,4.292,4.412,4.951c0.637,0.161,1.562,0.283,1.805,0.726
		c5.223,9.467,18.02,10.128,23.029,19.906c1.449,2.827,4.572,0.939,6.869,1.484c2.314,0.55,6.506-1.611,6.487,2.155
		c-0.015,3.078-4.079,1.432-6.351,1.772c-1.467,0.22-2.996-0.012-4.494,0.052c-2.855,0.122-4.715-0.203-5.734-3.815
		c-1.578-5.59-6.192-8.489-11.963-9.013c-2.268-0.206-3.65-0.795-4.293-3.158c-1.227-4.504-4.563-6.897-8.961-7.648
		c-2.631-0.449-3.412-1.554-3.573-4.232c-0.478-7.976-6.524-14.153-14.187-15.021c-6.292-0.713-13.59,4.292-15.624,11.448
		c-1.173,4.129-2.743,6.105-7.401,5.55c-4.179-0.498-7.272,2.048-9.063,5.743c-1.346,2.778-2.424,4.261-6.264,3.393
		c-7.197-1.629-14.535,3.362-16.459,11.157c-1.176,4.766-3.429,5.911-7.963,5.687c-7.482-0.371-14.995-0.08-22.495-0.119
		c-1.594-0.008-3.87,0.371-3.92-1.918c-0.051-2.289,2.182-2.021,3.804-2.035C339.781,42.015,343.614,42.039,347.448,42.038z"/>
	<path fill-rule="evenodd" clip-rule="evenodd" fill="#EEF0F3" d="M671.664,369.78c-1.37,0.008-2.74,0.016-4.11,0.027
		c-0.047-1.324,0.1-2.691-0.174-3.969c-2.448-11.463-4.987-22.904-7.46-34.363c-0.806-3.734-0.945-7.67-3.692-11.975
		c-3.664,17.463-7.107,33.871-10.551,50.281c-1.044,0-2.088,0-3.133-0.002c3.11-15.049,6.215-30.098,9.336-45.141
		c0.906-4.367,1.828-8.73,2.807-13.082c0.323-1.434,0.616-3.281,2.47-3.262c1.864,0.02,1.427,1.973,1.688,3.143
		c3.119,13.99,6.178,27.994,9.398,42.658c4.021-4.381,4.903-9.725,7.259-14.275c1.343-2.596,1.658-7.031,4.368-7.242
		c3.334-0.258,3.323,4.256,4.405,6.838c4.221,10.074,9.46,19.736,12.413,30.326c-1.05,0.012-2.099,0.027-3.147,0.043
		c-3.672-10.727-8.87-20.785-13.537-32.32c-2.844,6.68-4.739,12.508-7.713,17.721C669.423,360.212,669.989,364.841,671.664,369.78z"
		/>
	<path fill-rule="evenodd" clip-rule="evenodd" fill="#EEF0F3" d="M580.612,97.219c0.208-15.66,11.903-28.293,28.316-27.898
		c17.015,0.41,28.148,11.531,28.329,28.655c0.16,15.247-11.911,27.986-28.763,28.155
		C593.996,126.275,579.578,112.907,580.612,97.219z M609.063,73.021c-13.092-1.902-25.715,11.469-25.472,24.726
		c0.263,14.301,11.134,24.758,24.916,25.197c14.168,0.45,24.476-10.868,25.298-25.151C634.545,84.925,621.47,71.453,609.063,73.021z
		"/>
	<path fill-rule="evenodd" clip-rule="evenodd" fill="#EEF0F3" d="M407.522,185.004c-0.001,1.352-0.002,2.703-0.002,4.057
		c-6.018,2.678-10.169,7.787-15.12,11.818c-16.036,13.051-31.832,26.401-47.673,39.692c-5.454,4.576-10.582,9.561-16.218,13.891
		c-3.592,2.76-2.805,4.816-0.397,7.629c2.903,3.391,5.591,6.975,8.234,10.574c0.578,0.787,1.749,2.012,0.365,3.02
		c-0.91,0.662-2.015,0.061-2.625-0.762c-8.843-11.932-18.614-23.176-26.497-35.816c0.892-0.066,1.783-0.135,2.678-0.201
		c3.386,4.25,6.969,8.361,10.077,12.805c1.872,2.674,3.225,2.641,5.515,0.648c6.481-5.635,13.083-11.129,19.672-16.641
		c15.957-13.346,31.851-26.771,47.956-39.938C398.042,192.055,402.061,187.569,407.522,185.004z"/>
	<path fill-rule="evenodd" clip-rule="evenodd" fill="#EEF0F3" d="M114.755,119.018c-2.329,0.004-4.661-0.067-6.986,0.021
		c-3.372,0.129-6.594,0.188-6.262-4.645c0.021-0.307-0.094-0.819-0.298-0.917c-8.273-3.938-12.218-14.631-23.168-14.54
		c-5.221,0.045-8.508,2.541-10.653,6.78c-1.172,2.318-1.869,3.739-5.069,2.842c-4.008-1.124-8.816,2.353-9.629,6.495
		c-0.376,1.918-0.481,3.878-2.896,3.861c-3.094-0.021-6.316,0.929-9.256-0.759c-0.58-0.333-0.722-1.098-0.371-1.766
		c0.524-0.997,1.505-1.478,2.497-1.294c4.552,0.843,6.787-1.512,8.905-5.235c1.746-3.069,5.183-4.751,8.867-4.752
		c2.426,0,3.935-0.78,5.362-2.728c6.963-9.497,18.266-9.921,25.651-0.843c1.648,2.027,3.295,3.515,5.736,4.34
		c2.397,0.812,4.961,2.049,5.846,4.382c1.719,4.536,4.951,5.079,9.088,4.83c4.144-0.249,8.314-0.061,12.473-0.04
		c1.353,0.007,2.805,0.007,2.87,1.909c0.065,1.908-1.335,2.037-2.724,2.046C121.409,119.027,118.082,119.014,114.755,119.018z"/>
	<path fill-rule="evenodd" clip-rule="evenodd" fill="#EEF0F3" d="M534.85,122.031c5.826-0.301,10.068,1.681,12.999,6.385
		c0.962,1.542,2.116,3.292,4.048,3.454c5.004,0.419,6.592,5.188,10.045,7.551c0.725,0.495,0.784,1.542-0.046,2.128
		c-1.06,0.748-2.493,0.747-3.182-0.233c-2.661-3.786-5.603-6.528-10.704-6.995c-1.854-0.169-2.348-3.973-4.236-5.749
		c-6.209-5.842-16.564-4.592-20.265,3.017c-1.327,2.727-2.746,3.926-5.578,3.427c-3.989-0.702-6.636,1.233-8.88,4.216
		c-1.77,2.353-8.725,3.9-11.198,2.609c-0.634-0.33-1.065-0.782-0.924-1.541c0.194-1.043,1.093-1.356,1.878-1.197
		c4.748,0.957,7.719-1.423,10.378-4.958c0.795-1.057,2.661-2.077,3.874-1.914c4.816,0.647,7.53-1.972,10.258-5.308
		C526.319,123.251,530.37,121.467,534.85,122.031z"/>
	<path fill-rule="evenodd" clip-rule="evenodd" fill="#EEF0F3" d="M117.57,175.016c-0.655,2.006-1.31,4.012-1.964,6.018
		c-0.827,0.449-0.977,1.209-0.946,2.053c0,0,0.077,0.039,0.078,0.039c-2.412-0.211-3.46,1.77-4.815,3.125
		c-12.691,12.703-25.583,25.209-37.615,38.557c-0.887,0.984-1.875,1.9-2.925,2.705c-0.67,0.514-1.576,0.656-2.252-0.094
		c-0.66-0.734-0.438-1.576,0.066-2.277c0.482-0.67,1.085-1.258,1.666-1.852c14.761-15.104,29.518-30.208,44.303-45.288
		C114.414,176.731,115.455,175.053,117.57,175.016z"/>
	<path fill-rule="evenodd" clip-rule="evenodd" fill="#B7BFC8" d="M389.604,305.655c-0.137,7.539-3.661,12.5-8.725,12.277
		c-3.857-0.17-7.246-3.74-7.178-7.564c0.089-5.025,5.418-8.533,12.679-8.344C389.301,302.101,389.661,302.505,389.604,305.655z
		 M384.596,307.019c-2.696,0.953-5.439,0.33-5.846,3.463c-0.191,1.473,0.969,2.631,2.455,2.404
		C384.294,312.415,383.704,309.726,384.596,307.019z"/>
	<path fill-rule="evenodd" clip-rule="evenodd" fill="#B7BFC8" d="M440.046,312.788c8.211,0.75,12.797,4.133,12.247,9.15
		c-0.377,3.426-4.711,7.156-8.036,6.914c-4.635-0.336-9.234-7.713-8.317-13.564C436.268,313.198,437.599,312.114,440.046,312.788z
		 M444.122,318.146c-1.629-0.104-2.574,0.344-2.439,1.869c0.162,1.842,0.544,3.697,2.824,3.928c1.68,0.172,3.017-0.75,2.934-2.486
		C447.341,319.401,445.787,318.431,444.122,318.146z"/>
	<path fill-rule="evenodd" clip-rule="evenodd" fill="#EEF0F3" d="M565.503,248.479c-0.28,1.354-1.054,1.588-2.095,0.732
		c-5.88-4.834-11.745-9.684-17.588-14.559c-0.623-0.521-1.289-1.402-0.458-2.078c0.527-0.428,1.763-0.631,2.282-0.303
		c1.667,1.051,3.182,2.354,4.694,3.631c3.791,3.205,7.564,6.43,11.308,9.688C564.51,246.343,565.417,247.142,565.503,248.479z"/>
	<path fill-rule="evenodd" clip-rule="evenodd" fill="#EEF0F3" d="M60.586,235.608c-0.231,0.539-0.314,1.098-0.635,1.422
		c-4.089,4.141-8.197,8.264-12.344,12.346c-0.603,0.594-1.576,0.896-2.248,0.203c-1.026-1.061,0.066-1.813,0.703-2.459
		c3.852-3.912,7.74-7.785,11.635-11.654c0.572-0.568,1.171-1.33,2.107-0.971C60.156,234.63,60.331,235.224,60.586,235.608z"/>
	<path fill-rule="evenodd" clip-rule="evenodd" fill="#EEF0F3" d="M473.792,79.551c-3.17,0.731-3.777,3.728-5.817,5.238
		c-1.415-1.971-2.946-3.824-5.099-5.052c1.711-1.828,3.352-5.021,5.15-5.113C469.959,74.526,470.67,78.738,473.792,79.551z"/>
	<path fill-rule="evenodd" clip-rule="evenodd" fill="#EEF0F3" d="M587.242,215.868c0.52,3.305,3.749,3.715,5.112,5.877
		c-2.155,1.223-3.691,3.07-5.098,5.051c-1.812-1.742-4.999-3.441-5.055-5.236C582.143,219.685,586.208,218.835,587.242,215.868z"/>
	<path fill-rule="evenodd" clip-rule="evenodd" fill="#EEF0F3" d="M497.674,164.625c-2.879,2.057-3.854,4.502-5.943,4.016
		c-1.484-0.346-3.839-1.824-3.46-3.525c0.336-1.508,2.378-3.545,3.822-3.678C494.111,161.25,494.004,164.834,497.674,164.625z"/>
	<path fill-rule="evenodd" clip-rule="evenodd" fill="#EEF0F3" d="M96.548,295.167c-0.213,2.395-1.785,2.926-3.83,2.83
		c-1.986-0.092-3.106-1.084-3.016-3.111c0.108-2.418,1.759-2.912,3.797-2.826C95.491,292.146,96.523,293.159,96.548,295.167z"/>
	<path fill-rule="evenodd" clip-rule="evenodd" fill="#EEF0F3" d="M684.696,89.154c2.343,0.151,2.889,1.546,2.9,3.365
		c0.014,2.116-0.836,3.499-3.146,3.422c-2.043-0.068-2.733-1.368-2.831-3.255C681.497,90.308,683.126,89.704,684.696,89.154z"/>
	<path fill-rule="evenodd" clip-rule="evenodd" fill="#EEF0F3" d="M111.14,44.405c-0.069,2.496,5.548,1.894,2.76,5.392
		c-0.993,1.245-2.276,3.41-4.746,0.856C105.585,46.96,110.575,46.627,111.14,44.405z"/>
	<path fill-rule="evenodd" clip-rule="evenodd" fill="#EEF0F3" d="M135.584,369.079c0.204,0.143,0.408,0.283,0.612,0.426
		c-0.214,0.109-0.428,0.221-0.643,0.328C135.572,369.581,135.583,369.331,135.584,369.079z"/>
	<path fill-rule="evenodd" clip-rule="evenodd" fill="#EEF0F3" d="M210.652,316.938c2.264-1.158,1.915-3.273,1.92-5.254
		c0.01-3.332-0.001-6.666,0.014-9.998c0.019-4.109,2.518-6.367,6.193-6.381c3.745-0.012,5.953,2.289,5.938,6.465
		c-0.071,20.332-0.075,40.664,0.005,60.994c0.017,4.443-2.678,6.959-6.313,6.988c-21.642,0.178-43.374,1.619-64.909-0.482
		c-21.477-2.096-33.284-17.074-41.139-35.625c-6.172-14.576-5.147-29.83-3.951-45.184c1.357-17.418,4.046-34.564,8.152-51.518
		c0.414-1.709,0.913-3.396,1.601-5.938c1.901,4.523,3.541,8.293,5.076,12.105c6.604,16.395,18.742,26.553,35.322,32.063
		c11.134,3.699,22.413,6.18,34.174,5.857c10.298-0.281,20.625,0.76,30.904-0.869c3.793-0.604,3.7-2.365,1.829-4.652
		c-2.911-3.559-2.273-5.32,2.331-5.611c0.492-0.031,0.978-0.182,1.466-0.279c7.953-1.584,7.953-1.584,2.693-7.793
		c-3.659-4.32-3.193-5.92,2.25-7.877c0.774-0.279,1.489-0.725,2.232-1.092c0.871,2.309,1.456,4.777,2.66,6.893
		c4.166,7.324,2.646,11.604-5.518,14.061c-2.089,0.629-3.315,0.918-2.403,3.545c1.479,4.262-0.876,6.596-4.675,7.818
		c-6.954,2.236-14.09,3.65-21.392,3.818c-11.609,0.264-22.596-2.738-33.316-6.889c-4.029-1.559-5.873-0.432-6.186,3.873
		c-0.505,6.924,2.409,10.012,9.567,10.047c6.816,0.035,13.633,0.012,20.45,0.014c-2.777,3.486-5.854,6.734-6.204,11.615
		c-0.204,2.832-2.729,2.555-4.668,2.295c-10.974-1.463-21.913-3.211-32.906-4.504c-7.255-0.854-14.634-1.451-21.312,2.705
		c-2.191,1.363-4.067,2.871-0.855,5.168c-0.05,1.494-0.297,2.908-0.858,4.352c-2.584,6.65-1.46,12.441,3.553,17.816
		c2.954,3.166,6.745,4.031,10.342,5.582c20.141,8.688,41.274,12.875,63.106,14.012c3.665,0.191,4.947-0.893,4.871-4.713
		C210.475,339.228,210.639,328.081,210.652,316.938z"/>
	<path fill-rule="evenodd" clip-rule="evenodd" fill="#EEF0F3" d="M229.763,347.983c6.753,0.115,13.487,0.352,19.791-2.893
		c9.998-5.146,12.182-12.934,6.044-22.121c5.523-3.293,11.017-6.619,15.242-11.615c1.091-1.291,2.474-1.467,4.045-1.119
		c3.689,0.818,7.358,1.992,11.092,2.271c4.295,0.324,5.175,2.463,4.706,6.148c-0.207,1.625-0.039,3.301-0.019,4.953
		c0.023,1.9,0.781,3.182,2.871,3.289c2.098,6.221,4.639,8.014,10.075,7.113c3.746-0.621,5.955-4.174,6.003-9.637
		c0.025-2.832,0.067-5.664,0.102-8.496c3.623,2.004,4.557-0.418,4.747-3.176c0.251-3.648,0.017-7.328,0.099-10.99
		c0.082-3.648,1.938-6.4,5.582-6.438c3.892-0.039,6.507,2.227,6.505,6.6c-0.01,20.324,0.042,40.646-0.035,60.971
		c-0.019,4.914-2.79,7.094-8.791,7.117c-14.326,0.057-28.653,0.018-42.979,0.018c-13.993,0-27.987-0.031-41.979,0.025
		c-2.94,0.014-4.322-0.023-3.646-4.082C230.189,360.075,229.654,353.976,229.763,347.983z"/>
	<path fill-rule="evenodd" clip-rule="evenodd" fill="#EEF0F3" d="M559.582,313.155c-0.876,16.699-1.2,33.5-7.899,49.285
		c-0.194,0.457-0.283,0.965-0.513,1.402c-1.245,2.359-2.427,5.109-5.51,5.15c-3.112,0.043-4.433-2.654-5.546-5.07
		c-3.36-7.291-5.366-15.053-6.34-22.941c-1.342-10.85-2.765-21.775-2.048-32.736c0.972-14.865,1.714-29.818,7.585-43.857
		c0.127-0.305,0.14-0.672,0.309-0.945c1.598-2.592,2.293-6.465,6.192-6.316c3.517,0.135,4.536,3.631,5.721,6.248
		c4.505,9.955,6.239,20.635,6.94,31.393C558.873,300.878,560.342,306.954,559.582,313.155z"/>
	<path fill-rule="evenodd" clip-rule="evenodd" fill="#EEF0F3" d="M366.502,69.648c-0.391,1.896-1.311,3.056-2.272,4.216
		c-25.533,30.828-51.042,61.677-76.586,92.494c-19.609,23.658-39.248,47.292-58.937,70.881c-1.089,1.305-2.119,3.975-4.678,1.715
		c-1.967-1.736-1.41-3.242,0.128-5.098c13.893-16.758,27.675-33.608,41.536-50.391c15.764-19.088,31.575-38.138,47.367-57.204
		c16.006-19.325,32.011-38.649,48.035-57.958c0.709-0.854,1.498-2.38,2.682-1.733C364.967,67.219,365.706,68.698,366.502,69.648z"/>
	<path fill-rule="evenodd" clip-rule="evenodd" fill="#EEF0F3" d="M287.597,174.006c-0.185,9.121-1.523,18.197-1.007,27.352
		c0.351,6.217,1.642,12.235,4.603,17.667c4.751,8.715,11.793,10.584,23.784,8.258c7.243-1.406,13.636-5.203,20.164-8.504
		c1.747-0.883,3.434-2.256,5.5-0.723c-13.707,10.352-29.457,15.738-46.095,18.965c-0.975,0.188-1.959,0.34-2.925,0.568
		c-7.138,1.703-7.368,1.725-7.889-5.598c-0.969-13.609-3.557-26.926-6.732-40.147c-0.717-2.984-0.474-5.375,1.837-7.725
		C281.958,180.948,284.695,177.395,287.597,174.006z"/>
	<path fill-rule="evenodd" clip-rule="evenodd" fill="#EEF0F3" d="M264.813,166.903c-14.041,0.834-25.753-4.006-35.23-14.379
		c-1.477-1.615-2.766-3.264-2.956-5.534c9.22-0.612,18.401-1.436,26.93-5.444c2.423-1.139,4.131-1.282,4.893,2.021
		C260.262,151.424,263.486,158.905,264.813,166.903z"/>
	<path fill-rule="evenodd" clip-rule="evenodd" fill="#EEF0F3" d="M377.399,51.023c2.041,0.097,2.379,1.313,2.263,2.763
		c-0.159,1.976-1.063,3.818-3.114,3.817c-1.66,0-3.139-1.507-2.803-3.394C374.084,52.295,375.555,51.14,377.399,51.023z"/>
	<path fill-rule="evenodd" clip-rule="evenodd" fill="#EEF0F3" d="M213.519,64.965c-1.194-0.321-3.257,0.648-3.328-1.148
		c-0.069-1.758,1.63-2.784,3.522-2.746c1.678,0.033,3.28,1.056,3.26,2.512C216.941,65.873,214.711,64.507,213.519,64.965z"/>
	<path fill-rule="evenodd" clip-rule="evenodd" fill="#EEF0F3" d="M444.122,318.146c1.665,0.285,3.22,1.256,3.318,3.311
		c0.083,1.736-1.254,2.658-2.934,2.486c-2.28-0.23-2.662-2.086-2.824-3.928C441.547,318.489,442.493,318.042,444.122,318.146z"/>
	<path fill-rule="evenodd" clip-rule="evenodd" fill="#EEF0F3" d="M173.119,76.696c6.637-6.504,18.112-5.591,24.916,2.125
		C190.054,74.029,181.7,73.94,173.119,76.696z"/>
	<path fill-rule="evenodd" clip-rule="evenodd" fill="#EEF0F3" d="M234.006,82.332c-4.949,0-10.413-0.039-15.875,0.038
		c-0.951,0.013-2.113,0.727-2.228-0.837c-0.099-1.357,1.121-1.347,2.115-1.492c5.576-0.815,11.143-1.407,16.727-0.025
		c0.914,0.227,2.362-0.152,2.343,1.169C237.065,82.667,235.824,82.914,234.006,82.332z"/>
	<path fill-rule="evenodd" clip-rule="evenodd" fill="#B7BFC8" d="M188.21,92.048c-0.577,2.147-1.332,3.875-3.568,3.815
		c-2.254-0.06-3.833-1.346-3.7-3.688c0.112-1.981,1.307-3.312,3.596-3.158C186.666,89.161,187.699,90.416,188.21,92.048z"/>
	<path fill-rule="evenodd" clip-rule="evenodd" fill="#B7BFC8" d="M223.672,95.921c-2.389-0.317-3.185-1.738-3.028-3.862
		c0.17-2.317,1.611-3.132,3.728-3.02c1.962,0.104,3.176,1.18,3.074,3.156C227.326,94.519,225.855,95.709,223.672,95.921z"/>
	<path fill-rule="evenodd" clip-rule="evenodd" fill="#EEF0F3" d="M360.615,181.854c-0.068,7.309-3.774,11.295-10.383,11.174
		c-6.152-0.113-9.695-4.012-9.626-10.594c0.063-6.18,4.779-11.455,10.138-11.344C356.665,171.213,360.673,175.584,360.615,181.854z"
		/>
	<path fill-rule="evenodd" clip-rule="evenodd" fill="#EEF0F3" d="M571.233,265.04c0.214,3.592,1.782,5.49,3.86,7.766
		c2.83,3.098,3.667,8.027,5.304,12.191c0.244,0.623,0.059,1.467-0.723,1.516c-0.519,0.033-1.393-0.402-1.56-0.838
		c-0.826-2.164-2.66-4.146-2.982-6.125c-0.746-4.584-6.717-6.51-5.517-11.789c0.108-0.479,0.058-1,0.207-1.461
		C569.904,266.054,570.253,265.894,571.233,265.04z"/>
	<path fill-rule="evenodd" clip-rule="evenodd" fill="#EEF0F3" d="M580.183,319.257c0.108,1.064-0.213,1.764-0.987,1.596
		c-3.008-0.645-4.71-3.082-6.134-5.4c-1.213-1.971-0.558-4.203,1.465-5.713c0.686-0.512,1.47-0.863,2.281-0.326
		c0.727,0.482,0.575,1.262,0.06,1.686c-3.243,2.668-0.483,4.113,1.116,5.811C578.775,317.747,579.561,318.591,580.183,319.257z"/>
	<path fill-rule="evenodd" clip-rule="evenodd" fill="#EEF0F3" d="M576.068,350.886c-0.022,1.332-1.214,1.699-2.026,1.789
		c-3.327,0.363-4.461,2.293-4.469,5.375c-0.002,0.99,0.451,2.719-1.462,2.398c-1.359-0.227-1.474-1.613-1.429-2.824
		C566.877,352.474,570.687,349.729,576.068,350.886z"/>
</g>
</svg>
